<?xml version="1.0" encoding="utf-8"?>
<!-- Generator: Adobe Illustrator 22.1.0, SVG Export Plug-In . SVG Version: 6.00 Build 0)  -->
<svg version="1.1" id="Layer_1" xmlns="http://www.w3.org/2000/svg" xmlns:xlink="http://www.w3.org/1999/xlink" x="0px" y="0px"
	 viewBox="0 0 213 75" style="enable-background:new 0 0 213 75;" xml:space="preserve">
<g>
	<g>
		<path fill="#d5db38" d="M212,1c3.1-0.6,2,1.7,2,3c0,19.7,0,39.3,0,59c-3,0.9-6.1,1.7-9.1,2.6c-19.7,6.1-39.8,9.9-60.4,9.1
			c-16.8-0.6-33.4-3.4-50-6c-18.9-2.9-37.8-6.6-57-3.6C25.4,67,13.6,69.5,3,76c-3,0.6-2-1.7-2-3c0-19.7,0-39.4,0-59
			C11.4,9.6,22.1,5.9,33.3,3.8C53,0.2,72.4,3.5,91.8,6.4c25,3.8,49.9,8.7,75.3,5.5C182.5,9.9,197.6,7,212,1z"/>
	</g>
</g>
</svg>
