<svg xmlns="http://www.w3.org/2000/svg" viewBox="0 0 75.44 66.3"><defs><style>.cls-1{fill:#d5db38;fill-rule:evenodd;}</style></defs><title>Shape 21</title><g id="Layer_2" data-name="Layer 2"><g id="black_tie" data-name="black tie"><g id="Group_7" data-name="Group 7"><g id="Shape_21" data-name="Shape 21"><path class="cls-1" d="M73.25,2.11a7.69,7.69,0,0,0-10.58,0L42.38,22.3a1.25,1.25,0,0,0,1.77,1.76L64.44,3.87a5.12,5.12,0,0,1,7,0,4.94,4.94,0,0,1,0,7L37.17,45a5.11,5.11,0,0,1-7,0L15.69,30.64a5.1,5.1,0,0,1,0-7.28,5,5,0,0,1,6.91.11l11.09,11,4.89-4.87a1.25,1.25,0,1,0-1.77-1.76L33.65,31l-9.31-9.27A7.47,7.47,0,1,0,13.93,32.42L28.36,46.78a7.51,7.51,0,0,0,10.58,0L73.25,12.64a7.42,7.42,0,0,0,0-10.53ZM64.86,33.45a1.26,1.26,0,0,0-1.26,1.22,30.56,30.56,0,0,1-61,.89,30,30,0,0,1,8.14-22.88A30.58,30.58,0,0,1,45,5.4,1.24,1.24,0,0,0,46.49,5a1.28,1.28,0,0,0-.63-1.88A32.72,32.72,0,0,0,30.57.58,33.09,33.09,0,0,0,.08,31.11,32.55,32.55,0,0,0,8.91,55.84,33.1,33.1,0,0,0,66.12,34.73,1.25,1.25,0,0,0,64.86,33.45Z"/></g></g></g></g></svg>