<svg xmlns="http://www.w3.org/2000/svg" viewBox="0 0 15.41 15.27">
    <g id="cart" data-name="Shape 7">
        <path fill="#9da0b4" d="M15.26,4.68a.61.61,0,0,0-.46-.2H10.89V.6a.6.6,0,0,0-.61-.6H5.12a.6.6,0,0,0-.6.6V4.48H.61a.61.61,0,0,0-.46.2A.57.57,0,0,0,0,5.16L1.3,14.75a.6.6,0,0,0,.6.52H3.19a.6.6,0,0,0,.6-.6.6.6,0,0,0-.6-.6H2.43L1.3,5.68H4.52V7A.61.61,0,0,0,5.73,7V5.68H9.68V7a.61.61,0,0,0,1.21,0V5.68h3.22v0L13,14.07H5.77a.6.6,0,0,0-.61.6.6.6,0,0,0,.61.6h7.74a.6.6,0,0,0,.6-.52L15.4,5.16A.64.64,0,0,0,15.26,4.68Zm-5.58-.2H5.73V1.2H9.68Z"/>
    </g>
</svg>