<svg xmlns="http://www.w3.org/2000/svg" viewBox="0 0 28 28"><defs><style>.cls-1{fill:#d5db38;fill-rule:evenodd;}</style></defs><title>Shape 14</title><g id="Layer_2" data-name="Layer 2"><g id="footer"><g id="Shape_14" data-name="Shape 14"><path class="cls-1" d="M17.13,8.28H10.89a2.61,2.61,0,0,0-2.61,2.61v6.24a2.61,2.61,0,0,0,2.61,2.61h6.24a2.61,2.61,0,0,0,2.61-2.61V10.89A2.61,2.61,0,0,0,17.13,8.28ZM14,17.6A3.59,3.59,0,1,1,17.6,14,3.59,3.59,0,0,1,14,17.6Zm4.38-6.68a.89.89,0,0,1-.64.27.91.91,0,0,1-.64-.27.9.9,0,0,1,.64-1.54.88.88,0,0,1,.64.26.89.89,0,0,1,0,1.28ZM14,11.66A2.36,2.36,0,1,0,16.37,14,2.35,2.35,0,0,0,14,11.66ZM14,0A14,14,0,1,0,28,14,14,14,0,0,0,14,0Zm7,17.13A3.86,3.86,0,0,1,17.13,21H10.89a3.85,3.85,0,0,1-3.84-3.85V10.89a3.84,3.84,0,0,1,3.84-3.84h6.24A3.85,3.85,0,0,1,21,10.89Z"/></g></g></g></svg>