<svg xmlns="http://www.w3.org/2000/svg" viewBox="0 0 14.9 17.79"><defs><style>.cls-1{fill:#d6da4a;fill-rule:evenodd;}</style></defs><title>Shape 10</title><g id="Layer_2" data-name="Layer 2"><g id="menu"><g id="Shape_10" data-name="Shape 10"><path class="cls-1" d="M12.72,2a.72.72,0,0,0-.65-.16.63.63,0,0,0-.48.44.58.58,0,0,0,.18.59,5.34,5.34,0,0,1,1.79,4,6.39,6.39,0,0,1-1,2.8A27,27,0,0,1,10.29,13c-.86,1.11-1.72,2.12-2.3,2.76l-.5.56s-.06,0-.07,0l-.51-.56c-.57-.64-1.44-1.64-2.3-2.76A27.59,27.59,0,0,1,2.33,9.65a6.38,6.38,0,0,1-1-2.81A5.62,5.62,0,0,1,5.07,1.67a6.73,6.73,0,0,1,4.76,0,.7.7,0,0,0,.67-.08A.58.58,0,0,0,10.76,1a.62.62,0,0,0-.41-.49A7.71,7.71,0,0,0,.59,4.18,6.29,6.29,0,0,0,0,6.84,7.42,7.42,0,0,0,1.13,10.2h0a28.49,28.49,0,0,0,2.38,3.51c.81,1,1.71,2.1,2.41,2.84l.85.89a1,1,0,0,0,.72.34h0a1,1,0,0,0,.72-.35L9,16.55H9c.58-.65,1.46-1.67,2.36-2.83a28.6,28.6,0,0,0,2.38-3.52A7.42,7.42,0,0,0,14.9,6.84,6.62,6.62,0,0,0,12.72,2ZM7,8.78a2.39,2.39,0,0,1-2-2.28.64.64,0,0,0-.67-.61.64.64,0,0,0-.67.61A3.66,3.66,0,0,0,6.69,10a4,4,0,0,0,.76.07A3.92,3.92,0,0,0,11,7.86,3.42,3.42,0,0,0,9.61,3.54,4.17,4.17,0,0,0,4.71,4a.58.58,0,0,0-.18.6A.65.65,0,0,0,5,5a.73.73,0,0,0,.65-.17,2.72,2.72,0,0,1,3.2-.29A2.23,2.23,0,0,1,9.8,7.39,2.58,2.58,0,0,1,7,8.78Z"/></g></g></g></svg>