<svg xmlns="http://www.w3.org/2000/svg" viewBox="0 0 133.01 152.61"><defs><style>.cls-1{fill:#d5db38;fill-rule:evenodd;}</style></defs><title>Shape 3</title><g id="Layer_2" data-name="Layer 2"><g id="блок_1" data-name="блок 1"><g id="Shape_3" data-name="Shape 3"><path class="cls-1" d="M120.17,53.15a4.79,4.79,0,0,0-5.07,8.13,17.7,17.7,0,0,1,0,30.05l-78.47,49a17.69,17.69,0,0,1-27.06-15V27.34a17.69,17.69,0,0,1,27.06-15L82.31,40.82a4.79,4.79,0,0,0,5.07-8.13L41.69,4.19A26.91,26.91,0,0,0,14,3.48,27,27,0,0,0,0,27.34v97.93a27,27,0,0,0,14,23.85,26.87,26.87,0,0,0,27.65-.7l78.48-49a27.3,27.3,0,0,0,0-46.31Z"/></g></g></g></svg>