<svg xmlns="http://www.w3.org/2000/svg" viewBox="0 0 16 19"><defs><style>.cls-1{fill:#9da0b4;fill-rule:evenodd;}</style></defs><title>Shape 23</title><g id="Layer_2" data-name="Layer 2"><g id="menu"><g id="Shape_23" data-name="Shape 23"><path class="cls-1" d="M14.42,12.16a9.36,9.36,0,0,1-1.29-.45,1.09,1.09,0,0,0-1.1.13L10.3,13.15a.3.3,0,0,1-.37,0,12.66,12.66,0,0,1-2.6-2.36.62.62,0,0,0-.89-.07.69.69,0,0,0-.22.43.64.64,0,0,0,.15.46,13.85,13.85,0,0,0,2.86,2.6,1.56,1.56,0,0,0,1.83-.05l1.65-1.26a11.26,11.26,0,0,0,1.38.48,1,1,0,0,1,.64,1l-.21,1.49a2.11,2.11,0,0,1-.94,1.56,2.07,2.07,0,0,1-1.81.13,15.68,15.68,0,0,1-3.89-2A15.91,15.91,0,0,1,2.13,7.84,16.09,16.09,0,0,1,1.26,3.5a2.12,2.12,0,0,1,.63-1.71A2,2,0,0,1,3.63,1.3l1.52.21a.93.93,0,0,1,.75.9A12.06,12.06,0,0,0,6,3.88L4.32,5.13A1.6,1.6,0,0,0,3.77,6.9,14.05,14.05,0,0,0,4.94,9.57.63.63,0,1,0,6,8.93,12.73,12.73,0,0,1,5,6.51a.33.33,0,0,1,.12-.36L6.81,4.83a1.11,1.11,0,0,0,.43-1,9.32,9.32,0,0,1-.08-1.4A2.2,2.2,0,0,0,5.32.25L3.81,0A3.31,3.31,0,0,0,1,.85,3.35,3.35,0,0,0,0,3.58,17.06,17.06,0,0,0,.94,8.26a17.13,17.13,0,0,0,6.21,8.32,16.84,16.84,0,0,0,4.2,2.2,3.55,3.55,0,0,0,1.23.22,3.18,3.18,0,0,0,1.65-.46,3.38,3.38,0,0,0,1.54-2.47L16,14.58A2.24,2.24,0,0,0,14.42,12.16Z"/></g></g></g></svg>