<svg xmlns="http://www.w3.org/2000/svg" viewBox="0 0 71.66 58"><defs><style>.cls-1{fill:#d5db38;fill-rule:evenodd;}</style></defs><title>Shape 20</title><g id="Layer_2" data-name="Layer 2"><g id="black_tie" data-name="black tie"><g id="Group_8" data-name="Group 8"><g id="Shape_20" data-name="Shape 20"><path class="cls-1" d="M70.66,13.37,60.47,1.44A3.67,3.67,0,0,0,57.69,0H14.08a3.92,3.92,0,0,0-2.89,1.44L1,13.36a4.55,4.55,0,0,0,0,5.72L33.09,56.65A3.62,3.62,0,0,0,35.62,58H36a3.62,3.62,0,0,0,2.53-1.32L70.65,19.07A4.53,4.53,0,0,0,70.66,13.37ZM32.34,2.7,19,14.17,14.09,2.7ZM12.13,4.15l4.57,10.7H3ZM3,17.55H17.85L32.74,52.43ZM34.68,50.94,20.43,17.55H34.68Zm0-36.09H22.08L34.68,4ZM59.53,4.15l9.14,10.7H55ZM38.92,52.43,50.1,26.24a1.47,1.47,0,0,0-.52-1.81A1.08,1.08,0,0,0,48,25L37,50.94V17.55h2.3a1.27,1.27,0,0,0,1.16-1.35,1.26,1.26,0,0,0-1.16-1.35H37V4l9.68,8.31a1.05,1.05,0,0,0,.68.26,1.12,1.12,0,0,0,.93-.55A1.52,1.52,0,0,0,48,10.16L39.33,2.7H57.58L52.39,14.85h-8.5a1.26,1.26,0,0,0-1.15,1.35,1.26,1.26,0,0,0,1.15,1.35h7.35l-.9,2.09a1.47,1.47,0,0,0,.52,1.81,1,1,0,0,0,.51.14,1.14,1.14,0,0,0,1-.74l1.41-3.3H68.7Z"/></g></g></g></g></svg>