<svg xmlns="http://www.w3.org/2000/svg" viewBox="0 0 16.94 17.02"><defs><style>.cls-1{fill:#2e3848;fill-rule:evenodd;}</style></defs><title>Shape 6</title><g id="Layer_2" data-name="Layer 2"><g id="menu"><g id="Shape_6" data-name="Shape 6"><path class="cls-1" d="M16.75,15.88,11.9,11l0-.06a6.81,6.81,0,0,0,1.46-4.21,6.71,6.71,0,1,0-7.62,6.68h.09a.68.68,0,0,0,.66-.58.67.67,0,0,0-.13-.49A.72.72,0,0,0,6,12.08a5.38,5.38,0,1,1,2.79-.36.67.67,0,0,0-.36.87.68.68,0,0,0,.87.37,7,7,0,0,0,1.62-1L11,12,11,12l4.8,4.82a.63.63,0,0,0,.47.2.67.67,0,0,0,.47-1.14Z"/></g></g></g></svg>