<svg xmlns="http://www.w3.org/2000/svg" viewBox="0 0 28.16 28"><defs><style>.cls-1{fill:#d5db38;fill-rule:evenodd;}</style></defs><title>Shape 13</title><g id="Layer_2" data-name="Layer 2"><g id="footer"><g id="Shape_13" data-name="Shape 13"><path class="cls-1" d="M16.91,10.15l-7.67,4.7a.75.75,0,0,0-.34.86l.83,2.9a.2.2,0,0,0,.39,0L10.33,17a1.35,1.35,0,0,1,.41-.79l6.33-5.85A.13.13,0,0,0,16.91,10.15ZM14.08,0A14,14,0,1,0,28.16,14,14,14,0,0,0,14.08,0Zm3.79,21.48a.46.46,0,0,1-.72.28L13.2,18.91a.68.68,0,0,0-.8,0L10.22,20.7a.46.46,0,0,1-.74-.22L8,15.63,4,14.17a.46.46,0,0,1,0-.86L20.15,7.13a.46.46,0,0,1,.62.52Z"/></g></g></g></svg>