<svg xmlns="http://www.w3.org/2000/svg" viewBox="0 0 40 76"><defs><style>.cls-1{fill:#d5db38;}</style></defs><title>Shape 22</title><g id="Layer_2" data-name="Layer 2"><g id="black_tie" data-name="black tie"><g id="Group_6" data-name="Group 6"><g id="Shape_22" data-name="Shape 22"><path class="cls-1" d="M1.43,58.44h0A1.44,1.44,0,0,0,2.89,57V22.74a2.71,2.71,0,0,1,1.73-2.55L20,15.29l15.36,4.9a2.7,2.7,0,0,1,1.72,2.55V27A1.44,1.44,0,1,0,40,27V22.74a5.59,5.59,0,0,0-3.56-5.28L21.57,12.68l0-1.58A5.66,5.66,0,0,0,20,0a6.54,6.54,0,0,0-4.8,2.93,1.46,1.46,0,0,0-.07,1.47,1.44,1.44,0,0,0,1.25.76h0a1.39,1.39,0,0,0,1.19-.71A3.05,3.05,0,0,1,20,2.92a2.76,2.76,0,0,1,2.44,4A2.67,2.67,0,0,1,20,8.41h0a1.34,1.34,0,0,0-1,.39,1.31,1.31,0,0,0-.38,1l0,2.91L3.6,17.46A5.62,5.62,0,0,0,0,22.74V57A1.44,1.44,0,0,0,1.43,58.44ZM40,36.84a1.43,1.43,0,0,0-1.43-1.43h0a1.43,1.43,0,0,0-1.44,1.43V71.12a1.94,1.94,0,0,1-1.93,1.93H4.65A1.75,1.75,0,0,1,2.89,71.3V66.88a1.43,1.43,0,0,0-1.43-1.43h0A1.43,1.43,0,0,0,0,66.88v4.24A4.89,4.89,0,0,0,4.87,76H35.33A4.8,4.8,0,0,0,40,71.13ZM21.27,20a1.29,1.29,0,1,0-2.58,0v.83a1.29,1.29,0,0,0,2.58,0ZM20,65.74A1.29,1.29,0,0,0,18.69,67v.83a1.29,1.29,0,0,0,2.58,0V67A1.29,1.29,0,0,0,20,65.74Zm1.29-18.85a1.29,1.29,0,0,0-2.58,0v1.55a1.29,1.29,0,0,0,2.58,0Zm0-6.9a1.29,1.29,0,1,0-2.58,0v1.55a1.29,1.29,0,1,0,2.58,0Zm0,20.56a1.29,1.29,0,0,0-2.58,0V62.1a1.29,1.29,0,1,0,2.58,0Zm0-6.9a1.29,1.29,0,1,0-2.58,0V55.2a1.29,1.29,0,0,0,2.58,0Zm0-27.46a1.29,1.29,0,1,0-2.58,0v1.55a1.29,1.29,0,0,0,2.58,0Zm0,6.9a1.29,1.29,0,1,0-2.58,0v1.55a1.29,1.29,0,0,0,2.58,0Z"/></g></g></g></g></svg>