<svg xmlns="http://www.w3.org/2000/svg" viewBox="0 0 14.46 17.62"><defs><style>.cls-1{fill:#9da0b4;fill-rule:evenodd;}</style></defs><title>Shape 4</title><g id="Layer_2" data-name="Layer 2"><g id="menu"><g id="Shape_4" data-name="Shape 4"><path class="cls-1" d="M7.17,9.32h.11A3.29,3.29,0,0,0,9.81,8.21C11.16,6.67,11,4.08,10.92,3.77A3.66,3.66,0,0,0,9.18.51,3.79,3.79,0,0,0,7.26,0h0A3.89,3.89,0,0,0,5.29.49,3.67,3.67,0,0,0,3.53,3.77c0,.31-.24,2.91,1.11,4.44A3.29,3.29,0,0,0,7.17,9.32ZM4.71,3.88h0s0,0,0,0a2.7,2.7,0,0,1,1-2.21A2.58,2.58,0,0,1,7.2,1.21h0a2.65,2.65,0,0,1,1.54.48,2.72,2.72,0,0,1,1,2.15v.05c0,.18.2,2.37-.82,3.52a2.13,2.13,0,0,1-1.67.7h0a2.16,2.16,0,0,1-1.68-.7C4.51,6.24,4.71,4,4.71,3.88ZM14.46,14h0a.11.11,0,0,0,0-.05v0h0c0-.72-.07-2.4-1.66-2.95h0a9.44,9.44,0,0,1-2.8-1.29h0a.62.62,0,0,0-.46-.1.66.66,0,0,0-.4.25.63.63,0,0,0,.15.87,11.06,11.06,0,0,0,3.19,1.48c.7.25.79,1,.81,1.8V14a6.05,6.05,0,0,1-.05,1,12.56,12.56,0,0,1-5.94,1.37A12.43,12.43,0,0,1,1.29,15a7.77,7.77,0,0,1-.06-1v0a.13.13,0,0,0,0-.06c0-.77.1-1.54.81-1.8a11,11,0,0,0,3.17-1.46h0a.62.62,0,0,0-.71-1,9.44,9.44,0,0,1-2.8,1.29H1.67C.08,11.51,0,13.19,0,13.9H0V14H0v0a5.71,5.71,0,0,0,.19,1.63.59.59,0,0,0,.24.3,13.15,13.15,0,0,0,6.8,1.68A13.24,13.24,0,0,0,14,15.94a.63.63,0,0,0,.24-.3A6,6,0,0,0,14.46,14Z"/></g></g></g></svg>