<svg xmlns="http://www.w3.org/2000/svg" viewBox="0 0 28.16 28"><defs><style>.cls-1{fill:#d5db38;fill-rule:evenodd;}</style></defs><title>Shape 12</title><g id="Layer_2" data-name="Layer 2"><g id="footer"><g id="Shape_12" data-name="Shape 12"><path class="cls-1" d="M14.08,0A14,14,0,1,0,28.16,14,14,14,0,0,0,14.08,0Zm7.8,17.05v0a5.54,5.54,0,0,1-3.74,3.58h0A20.63,20.63,0,0,1,14.2,21c-.39,0-.77,0-1.15,0l-1.78,1.83a.7.7,0,0,1-1.21-.48V20.6a5.59,5.59,0,0,1-3.53-3.53v0a15.12,15.12,0,0,1,0-6.56v0A5.49,5.49,0,0,1,10.27,6.9h0a21,21,0,0,1,7.82,0h0a5.51,5.51,0,0,1,3.74,3.57v0A15.44,15.44,0,0,1,21.88,17.05ZM17.83,8.29a19.69,19.69,0,0,0-7.26,0,4.16,4.16,0,0,0-2.64,2.52,13.49,13.49,0,0,0,0,5.93,4.15,4.15,0,0,0,2.64,2.51h0a.11.11,0,0,1,.08.1v2.88a.16.16,0,0,0,.28.11l1.37-1.4,1.3-1.32s0,0,.07,0a20.09,20.09,0,0,0,4.16-.34,4.17,4.17,0,0,0,2.64-2.51,13.79,13.79,0,0,0,0-5.93A4.19,4.19,0,0,0,17.83,8.29Zm-3.6,1.39c1.76.05.21,0,0,0Zm3.64,7.2a2.25,2.25,0,0,1-1,1.06c-.13.06-.28.08-.42.13s-.31-.08-.46-.14a10.68,10.68,0,0,1-3.94-2.62A10.52,10.52,0,0,1,10.59,13c-.2-.39-.36-.8-.52-1.2a1,1,0,0,1,.3-1,2.55,2.55,0,0,1,.81-.61.53.53,0,0,1,.65.16,8.16,8.16,0,0,1,1,1.4.66.66,0,0,1-.19.91l-.21.16a1.45,1.45,0,0,0-.17.18.49.49,0,0,0,0,.41,3.73,3.73,0,0,0,2.11,2.32,1,1,0,0,0,.54.13c.33,0,.44-.4.67-.59a.65.65,0,0,1,.76,0l.72.49a6.57,6.57,0,0,1,.67.51A.53.53,0,0,1,17.87,16.88ZM15.68,13.2c0-.1,0-.2,0-.3a.88.88,0,0,0-.33-.51.57.57,0,0,0-.26-.12c-.12,0-.24,0-.36-.06a.22.22,0,0,1-.18-.26.23.23,0,0,1,.25-.18,1.33,1.33,0,0,1,1.37,1.32.61.61,0,0,1,0,.19.19.19,0,0,1-.16.16h0A.25.25,0,0,1,15.68,13.2Zm-.2-1.78a2.68,2.68,0,0,0-.73-.22l-.34,0a.21.21,0,0,1-.2-.24.21.21,0,0,1,.23-.2,3,3,0,0,1,1.28.33,2.57,2.57,0,0,1,1.4,2,.5.5,0,0,1,0,.12c0,.1,0,.2,0,.33a.93.93,0,0,1,0,.14.22.22,0,0,1-.42,0,.58.58,0,0,1,0-.19,2.32,2.32,0,0,0-.3-1.17A2.18,2.18,0,0,0,15.48,11.42ZM18,14.19c-.15,0-.22-.13-.23-.27s0-.55-.07-.82a3.47,3.47,0,0,0-2.8-2.89c-.22,0-.44-.05-.66-.07s-.32,0-.35-.2a.24.24,0,0,1,.23-.27h.12a3.94,3.94,0,0,1,3.88,3.24,8.3,8.3,0,0,1,.1,1A.24.24,0,0,1,18,14.19Z"/></g></g></g></svg>