<svg xmlns="http://www.w3.org/2000/svg" viewBox="0 0 28 28"><defs><style>.cls-1{fill:#d5db38;fill-rule:evenodd;}</style></defs><title>Shape 16</title><g id="Layer_2" data-name="Layer 2"><g id="footer"><g id="Shape_16" data-name="Shape 16"><path class="cls-1" d="M12.13,16.25l4.61-2.39-4.61-2.4ZM14,0A14,14,0,1,0,28,14,14,14,0,0,0,14,0Zm7,17.43a1.82,1.82,0,0,1-1.56,1.42,49.19,49.19,0,0,1-5.43.2,49.19,49.19,0,0,1-5.43-.2A1.83,1.83,0,0,1,7,17.43,15.72,15.72,0,0,1,6.76,14,15.59,15.59,0,0,1,7,10.58,1.85,1.85,0,0,1,8.58,9.15,48.92,48.92,0,0,1,14,9a49.19,49.19,0,0,1,5.43.2A1.85,1.85,0,0,1,21,10.58,15.59,15.59,0,0,1,21.25,14,15.13,15.13,0,0,1,21,17.43Z"/></g></g></g></svg>