<svg xmlns="http://www.w3.org/2000/svg" viewBox="0 0 136 112"><defs><style>.cls-1{fill:#343a49;fill-rule:evenodd;}</style></defs><title>Shape 1 (2)</title><g id="Layer_2" data-name="Layer 2"><g id="заказать1"><g id="Shape_1" data-name="Shape 1"><path class="cls-1" d="M56.56,0C25.37,0,0,25.12,0,56s25.37,56,56.56,56,56.55-25.12,56.55-56S87.74,0,56.56,0Zm0,103.11C30.32,103.11,9,82,9,56S30.32,8.89,56.56,8.89,104.13,30,104.13,56,82.79,103.11,56.56,103.11Zm7.33-44.44h9.87l8.38-22.39H71.88ZM54.4,66.16C51.91,59.42,50.8,52,48.65,46A33.35,33.35,0,0,0,43,36.07L32.47,36S37.85,43.14,40,49.12s3.26,13.44,5.75,20.18a63.42,63.42,0,0,0,6.47,12.48H63L58,73.2A42.43,42.43,0,0,1,54.4,66.16Zm75.09,2.73A6.45,6.45,0,1,0,136,75.33,6.48,6.48,0,0,0,129.49,68.89Z"/></g></g></g></svg>